{
   "accessors" : [
      {
         "bufferView" : 0,
         "componentType" : 5123,
         "count" : 48,
         "max" : [ 47 ],
         "min" : [ 0 ],
         "name" : "buffer-0-accessor-indices-buffer-0-mesh-0",
         "type" : "SCALAR"
      },
      {
         "bufferView" : 2,
         "componentType" : 5126,
         "count" : 48,
         "max" : [ 0.3830739855766296, 0.1615049988031387, 0 ],
         "min" : [ -0.3830739855766296, 0, -5.490809917449951 ],
         "name" : "buffer-0-accessor-position-buffer-0-mesh-0",
         "type" : "VEC3"
      },
      {
         "bufferView" : 2,
         "byteOffset" : 576,
         "componentType" : 5126,
         "count" : 48,
         "max" : [ 0, 0.9238815307617188, 0.9238900542259216 ],
         "min" : [ 0, -0.9238815307617188, -0.9238900542259216 ],
         "name" : "buffer-0-accessor-normal-buffer-0-mesh-0",
         "type" : "VEC3"
      },
      {
         "bufferView" : 1,
         "componentType" : 5126,
         "count" : 48,
         "max" : [ 0.625, 0 ],
         "min" : [ 0, -0.6884400248527527 ],
         "name" : "buffer-0-accessor-texcoord-buffer-0-mesh-0",
         "type" : "VEC2"
      },
      {
         "bufferView" : 3,
         "componentType" : 5126,
         "count" : 0,
         "max" : [ 0, 0, 0, 0 ],
         "min" : [ 0, 0, 0, 0 ],
         "name" : "buffer-0-accessor-color-buffer-0-mesh-0",
         "type" : "VEC4"
      },
      {
         "bufferView" : 0,
         "byteOffset" : 96,
         "componentType" : 5123,
         "count" : 1272,
         "max" : [ 1271 ],
         "min" : [ 0 ],
         "name" : "buffer-0-accessor-indices-buffer-0-mesh-0",
         "type" : "SCALAR"
      },
      {
         "bufferView" : 2,
         "byteOffset" : 1152,
         "componentType" : 5126,
         "count" : 1272,
         "max" : [ 0.5105850100517273, 0.2053309977054596, 1.126109004020691 ],
         "min" : [ -0.5105819702148438, 0, -1.027801036834717 ],
         "name" : "buffer-0-accessor-position-buffer-0-mesh-0",
         "type" : "VEC3"
      },
      {
         "bufferView" : 2,
         "byteOffset" : 16416,
         "componentType" : 5126,
         "count" : 1272,
         "max" : [ 1, 1, 0.9997203350067139 ],
         "min" : [ -0.9999999403953552, -1, -0.9998870491981506 ],
         "name" : "buffer-0-accessor-normal-buffer-0-mesh-0",
         "type" : "VEC3"
      },
      {
         "bufferView" : 1,
         "byteOffset" : 384,
         "componentType" : 5126,
         "count" : 1272,
         "max" : [ 1, 0 ],
         "min" : [ 0, -1 ],
         "name" : "buffer-0-accessor-texcoord-buffer-0-mesh-0",
         "type" : "VEC2"
      },
      {
         "bufferView" : 3,
         "componentType" : 5126,
         "count" : 0,
         "max" : [ 0, 0, 0, 0 ],
         "min" : [ 0, 0, 0, 0 ],
         "name" : "buffer-0-accessor-color-buffer-0-mesh-0",
         "type" : "VEC4"
      },
      {
         "bufferView" : 0,
         "byteOffset" : 2640,
         "componentType" : 5123,
         "count" : 408,
         "max" : [ 407 ],
         "min" : [ 0 ],
         "name" : "buffer-0-accessor-indices-buffer-0-mesh-0",
         "type" : "SCALAR"
      },
      {
         "bufferView" : 2,
         "byteOffset" : 31680,
         "componentType" : 5126,
         "count" : 408,
         "max" : [ 0.3974449932575226, 0.1675920039415359, 0 ],
         "min" : [ -0.3974449932575226, 0, -5.50255298614502 ],
         "name" : "buffer-0-accessor-position-buffer-0-mesh-0",
         "type" : "VEC3"
      },
      {
         "bufferView" : 2,
         "byteOffset" : 36576,
         "componentType" : 5126,
         "count" : 408,
         "max" : [ 1, 1, 0.9994317889213562 ],
         "min" : [ -1, -1, -1 ],
         "name" : "buffer-0-accessor-normal-buffer-0-mesh-0",
         "type" : "VEC3"
      },
      {
         "bufferView" : 1,
         "byteOffset" : 10560,
         "componentType" : 5126,
         "count" : 408,
         "max" : [ 1, 0 ],
         "min" : [ 0, -1 ],
         "name" : "buffer-0-accessor-texcoord-buffer-0-mesh-0",
         "type" : "VEC2"
      },
      {
         "bufferView" : 3,
         "componentType" : 5126,
         "count" : 0,
         "max" : [ 0, 0, 0, 0 ],
         "min" : [ 0, 0, 0, 0 ],
         "name" : "buffer-0-accessor-color-buffer-0-mesh-0",
         "type" : "VEC4"
      },
      {
         "bufferView" : 0,
         "byteOffset" : 3456,
         "componentType" : 5123,
         "count" : 72,
         "max" : [ 71 ],
         "min" : [ 0 ],
         "name" : "buffer-0-accessor-indices-buffer-0-mesh-0",
         "type" : "SCALAR"
      },
      {
         "bufferView" : 2,
         "byteOffset" : 41472,
         "componentType" : 5126,
         "count" : 72,
         "max" : [ 0.09059300273656845, 0.1664009988307953, 0 ],
         "min" : [ -0.09059300273656845, 0, -4.343494892120361 ],
         "name" : "buffer-0-accessor-position-buffer-0-mesh-0",
         "type" : "VEC3"
      },
      {
         "bufferView" : 2,
         "byteOffset" : 42336,
         "componentType" : 5126,
         "count" : 72,
         "max" : [ 0.9438558220863342, 1, 0.000839141895994544 ],
         "min" : [ -0.9438558220863342, -1, 0 ],
         "name" : "buffer-0-accessor-normal-buffer-0-mesh-0",
         "type" : "VEC3"
      },
      {
         "bufferView" : 1,
         "byteOffset" : 13824,
         "componentType" : 5126,
         "count" : 72,
         "max" : [ 1, 0 ],
         "min" : [ 0, -0.9969429969787598 ],
         "name" : "buffer-0-accessor-texcoord-buffer-0-mesh-0",
         "type" : "VEC2"
      },
      {
         "bufferView" : 3,
         "componentType" : 5126,
         "count" : 0,
         "max" : [ 0, 0, 0, 0 ],
         "min" : [ 0, 0, 0, 0 ],
         "name" : "buffer-0-accessor-color-buffer-0-mesh-0",
         "type" : "VEC4"
      }
   ],
   "asset" : {
      "generator" : "Obj2GltfConverter",
      "version" : "2.0"
   },
   "bufferViews" : [
      {
         "buffer" : 0,
         "byteLength" : 3600,
         "byteStride" : 0,
         "name" : "buffer-0-bufferview-ushort",
         "target" : 34963
      },
      {
         "buffer" : 0,
         "byteLength" : 14400,
         "byteOffset" : 3600,
         "byteStride" : 8,
         "name" : "buffer-0-bufferview-vec2",
         "target" : 34962
      },
      {
         "buffer" : 0,
         "byteLength" : 43200,
         "byteOffset" : 18000,
         "byteStride" : 12,
         "name" : "buffer-0-bufferview-vec3",
         "target" : 34962
      },
      {
         "buffer" : 0,
         "byteLength" : 1,
         "name" : "buffer-0-bufferview-vec4"
      }
   ],
   "buffers" : [
      {
         "byteLength" : 61200,
         "name" : "buffer-0",
         "uri" : "pitchfork.bin"
      }
   ],
   "materials" : [
      {
         "doubleSided" : true,
         "name" : "lambert5SG",
         "pbrMetallicRoughness" : {
            "baseColorFactor" : [ 0.26, 0.21, 0.13, 1 ],
            "metallicFactor" : 0,
            "roughnessFactor" : 0.9699476628648295
         }
      },
      {
         "doubleSided" : true,
         "name" : "lambert2SG",
         "pbrMetallicRoughness" : {
            "baseColorFactor" : [ 0.1, 0.12, 0.1, 1 ],
            "metallicFactor" : 0,
            "roughnessFactor" : 0.9699476628648295
         }
      },
      {
         "doubleSided" : true,
         "name" : "lambert4SG",
         "pbrMetallicRoughness" : {
            "baseColorFactor" : [ 0.08, 0.03, 0.01, 1 ],
            "metallicFactor" : 0,
            "roughnessFactor" : 0.9699476628648295
         }
      },
      {
         "doubleSided" : true,
         "name" : "lambert3SG",
         "pbrMetallicRoughness" : {
            "baseColorFactor" : [ 0.33, 0.15, 0.03, 1 ],
            "metallicFactor" : 0,
            "roughnessFactor" : 0.9699476628648295
         }
      }
   ],
   "meshes" : [
      {
         "name" : "buffer-0-mesh-0",
         "primitives" : [
            {
               "attributes" : {
                  "NORMAL" : 2,
                  "POSITION" : 1,
                  "TEXCOORD_0" : 3
               },
               "indices" : 0,
               "material" : 0
            },
            {
               "attributes" : {
                  "NORMAL" : 7,
                  "POSITION" : 6,
                  "TEXCOORD_0" : 8
               },
               "indices" : 5,
               "material" : 1
            },
            {
               "attributes" : {
                  "NORMAL" : 12,
                  "POSITION" : 11,
                  "TEXCOORD_0" : 13
               },
               "indices" : 10,
               "material" : 2
            },
            {
               "attributes" : {
                  "NORMAL" : 17,
                  "POSITION" : 16,
                  "TEXCOORD_0" : 18
               },
               "indices" : 15,
               "material" : 3
            }
         ]
      }
   ],
   "nodes" : [
      {
         "mesh" : 0,
         "name" : "node-0"
      }
   ],
   "scenes" : [
      {
         "name" : "scene-0",
         "nodes" : [ 0 ]
      }
   ]
}
