{
  "accessors": [
    {
      "bufferView": 0,
      "byteOffset": 0,
      "componentType": 5123,
      "count": 393909,
      "max": [
        65533.0
      ],
      "min": [
        0.0
      ],
      "name": "buffer-0-group-0-mesh-0-indices",
      "type": "SCALAR"
    },
    {
      "bufferView": 1,
      "byteOffset": 0,
      "componentType": 5126,
      "count": 65534,
      "max": [
        8.655688285827637,
        8.254530906677246,
        16.23219108581543
      ],
      "min": [
        -11.337061882019043,
        -10.621103286743164,
        -14.419133186340332
      ],
      "name": "buffer-0-group-0-mesh-0-position",
      "type": "VEC3"
    },
    {
      "bufferView": 1,
      "byteOffset": 786408,
      "componentType": 5126,
      "count": 65534,
      "max": [
        0.9991022348403931,
        0.9998760223388672,
        1.0
      ],
      "min": [
        -1.0,
        -0.9999690055847168,
        -0.9998760223388672
      ],
      "name": "buffer-0-group-0-mesh-0-normal",
      "type": "VEC3"
    },
    {
      "bufferView": 2,
      "byteOffset": 0,
      "componentType": 5126,
      "count": 65534,
      "max": [
        0.9647060036659241,
        1.0,
        0.7176470160484314,
        1.0
      ],
      "min": [
        0.04705899953842163,
        0.035294000059366226,
        0.01176500041037798,
        1.0
      ],
      "name": "buffer-0-group-0-mesh-0-color",
      "type": "VEC4"
    },
    {
      "bufferView": 0,
      "byteOffset": 787818,
      "componentType": 5123,
      "count": 204153,
      "max": [
        34004.0
      ],
      "min": [
        0.0
      ],
      "name": "buffer-0-group-0-mesh-1-indices",
      "type": "SCALAR"
    },
    {
      "bufferView": 1,
      "byteOffset": 1572816,
      "componentType": 5126,
      "count": 34005,
      "max": [
        6.864065170288086,
        9.807342529296875,
        9.757064819335938
      ],
      "min": [
        -9.504373550415039,
        -10.075190544128418,
        -14.632926940917969
      ],
      "name": "buffer-0-group-0-mesh-1-position",
      "type": "VEC3"
    },
    {
      "bufferView": 1,
      "byteOffset": 1980876,
      "componentType": 5126,
      "count": 34005,
      "max": [
        0.9999690055847168,
        0.9999690055847168,
        0.9995972514152527
      ],
      "min": [
        -0.999845027923584,
        -0.999225914478302,
        -0.9999690055847168
      ],
      "name": "buffer-0-group-0-mesh-1-normal",
      "type": "VEC3"
    },
    {
      "bufferView": 2,
      "byteOffset": 1048544,
      "componentType": 5126,
      "count": 34005,
      "max": [
        0.9568629860877991,
        0.9882349967956543,
        0.7058820128440857,
        1.0
      ],
      "min": [
        0.23921599984169006,
        0.23137299716472626,
        0.11372499912977219,
        1.0
      ],
      "name": "buffer-0-group-0-mesh-1-color",
      "type": "VEC4"
    }
  ],
  "asset": {
    "generator": "Obj2GltfConverter",
    "version": "2.0"
  },
  "bufferViews": [
    {
      "buffer": 0,
      "byteLength": 1196124,
      "byteOffset": 0,
      "name": "buffer-0-bufferview-ushort",
      "target": 34963
    },
    {
      "buffer": 0,
      "byteLength": 2388936,
      "byteOffset": 1196124,
      "byteStride": 12,
      "name": "buffer-0-bufferview-vec3",
      "target": 34962
    },
    {
      "buffer": 0,
      "byteLength": 1592624,
      "byteOffset": 3585072,
      "byteStride": 16,
      "name": "buffer-0-bufferview-vec4",
      "target": 34962
    }
  ],
  "buffers": [
    {
      "byteLength": 5177696,
      "name": "buffer-0",
      "uri": "2019.11.12-11.52.31.bin"
    }
  ],
  "materials": [
    {
      "alphaMode": "OPAQUE",
      "doubleSided": true,
      "name": "__default",
      "pbrMetallicRoughness": {
        "baseColorFactor": [
          1.0,
          1.0,
          1.0,
          1.0
        ],
        "metallicFactor": 0.0,
        "roughnessFactor": 0.9699476628648295
      }
    }
  ],
  "meshes": [
    {
      "name": "buffer-0-mesh-0",
      "primitives": [
        {
          "attributes": {
            "POSITION": 1,
            "NORMAL": 2,
            "COLOR_0": 3
          },
          "indices": 0,
          "material": 0,
          "mode": 4
        },
        {
          "attributes": {
            "POSITION": 5,
            "NORMAL": 6,
            "COLOR_0": 7
          },
          "indices": 4,
          "material": 0,
          "mode": 4
        }
      ]
    }
  ],
  "nodes": [
    {
      "mesh": 0,
      "name": "node-0"
    }
  ],
  "scenes": [
    {
      "name": "scene-0",
      "nodes": [
        0
      ]
    }
  ]
}